<?xml version="1.0" encoding="UTF-8"?>
<svg version="1.1" xmlns="http://www.w3.org/2000/svg" width="31.8" height="32">
<path d="M0 0 C165 0 330 0 500 0 C500 165 500 330 500 500 C335 500 170 500 0 500 C0 335 0 170 0 0 Z " fill="#3F4445" transform="translate(0,0)"/>
<path d="M0 0 C165 0 330 0 500 0 C500 165 500 330 500 500 C335 500 170 500 0 500 C0 335 0 170 0 0 Z M222.0703125 14.73046875 C219.61250157 16.23761696 217.87670742 16.77266142 215 17 C212.484375 16.22265625 212.484375 16.22265625 209.75 15.0625 C200.02725035 11.63798473 189.29433404 11.33033371 179.5625 14.9375 C172.37302506 18.41372964 166.24556503 23.63566239 161.8125 30.27734375 C158.79312164 33.20026975 158.47139721 33.39159072 154.55859375 33.4453125 C152.85028515 33.36142309 151.1430291 33.25355428 149.4375 33.125 C137.88989024 32.70696339 129.04156456 34.39987618 120.02734375 42.09375 C113.41629526 48.30991891 109.14245177 54.39808134 106 63 C106 63.66 106 64.32 106 65 C105.071875 64.938125 104.14375 64.87625 103.1875 64.8125 C92.74002479 64.87569037 83.18780017 69.28381802 75.55078125 76.2265625 C68.19570916 83.88556319 64.21396892 91.33337881 63.3125 101.9375 C62.8984375 105.25390625 62.8984375 105.25390625 62 108 C59.63435656 109.71257971 57.53612901 110.34753189 54.73046875 111.12890625 C45.54683135 114.05873621 38.52103461 122.81520337 34.1875 131.0625 C31.62570201 136.17780537 30.8130167 140.6761907 31.32421875 146.35546875 C32.36233594 158.7325293 32.36233594 158.7325293 29.92333984 162.79199219 C27.57517185 165.4184185 24.87081884 167.46928827 22.0625 169.578125 C16.17075986 174.23740929 12.91937195 180.82172107 11 188 C10.70255828 190.94275172 10.66745951 193.85637356 10.6875 196.8125 C10.68951416 197.61204102 10.69152832 198.41158203 10.69360352 199.23535156 C10.79147298 204.98093375 11.69599163 209.71503234 14 215 C15.0625 218.0625 15.0625 218.0625 15 221 C13.69811801 223.12670448 12.21607223 224.99228307 10.6328125 226.91796875 C3.39699422 236.14450259 3.25315914 246.75160382 4 258 C5.03666605 265.10449116 8.08638058 270.07227901 12.4765625 275.67578125 C14.16013653 278.24431086 14.79160825 279.94197216 15 283 C14.22265625 285.0078125 14.22265625 285.0078125 13.0625 287.125 C9.00360723 296.60521109 9.36853558 309.08429719 13.0625 318.625 C15.92818774 324.38857422 19.42175132 330.76413938 25.00439453 334.25244141 C30.6950274 337.86643953 30.6950274 337.86643953 31.58129883 341.16064453 C31.64432372 343.68734606 31.49042894 346.10925187 31.25 348.625 C30.6873451 360.94870531 33.04670743 369.61369786 40.72265625 379.51953125 C46.03681872 385.3076842 52.5962981 389.43136873 60 392 C60.99 392 61.98 392 63 392 C62.99097656 392.77601563 62.98195312 393.55203125 62.97265625 394.3515625 C63.29045427 405.93046415 67.34597164 415.48715683 75.1875 424 C82.39311615 430.6361001 91.39056895 435.19222936 101.25 435.0625 C102.58804688 435.04896484 102.58804688 435.04896484 103.953125 435.03515625 C104.62859375 435.02355469 105.3040625 435.01195312 106 435 C106.17015625 435.56847656 106.3403125 436.13695312 106.515625 436.72265625 C110.18228549 448.40526068 116.0766277 457.11462875 127 463 C134.3771397 466.73029861 140.03367636 467.27687393 148.1875 466.6875 C157.96820968 466.32525149 157.96820968 466.32525149 161.6640625 468.7421875 C163.3125 471.0625 163.3125 471.0625 164.65625 473.546875 C169.03975615 481.54932227 178.65205498 485.10831238 186.953125 487.58203125 C197.14389027 489.66296996 206.63226265 486.96099633 216.0703125 483.16796875 C219.09798853 482.9044261 220.51691808 484.4428718 222.875 486.25 C233.93071001 494.39973043 245.49637534 495.766341 259 494 C265.21182269 492.24472264 270.78377596 488.96037809 275.60546875 484.6953125 C278 483 278 483 280.2109375 483.1953125 C280.92507813 483.50210937 281.63921875 483.80890625 282.375 484.125 C283.16003906 484.43308594 283.94507813 484.74117188 284.75390625 485.05859375 C285.49511719 485.36925781 286.23632812 485.67992187 287 486 C296.99075182 489.58159028 308.3347205 489.11577474 317.94140625 484.625 C326.15766363 480.1826681 331.84108674 474.7383699 337 467 C339.05615234 466.73876953 339.05615234 466.73876953 341.5859375 466.8828125 C342.51116211 466.91890625 343.43638672 466.955 344.38964844 466.9921875 C345.86739746 467.05792969 345.86739746 467.05792969 347.375 467.125 C361.39810635 467.41404309 370.76237527 463.80398685 381 454 C385.41476351 449.22728269 390 441.63678109 390 435 C391.051875 435.0825 392.10375 435.165 393.1875 435.25 C402.91502287 435.21544397 411.90357804 431.5180792 419 425 C419.62648438 424.45214844 420.25296875 423.90429688 420.8984375 423.33984375 C428.43942949 416.35567606 431.23942079 408.00329096 433 398 C433.04639123 396.00053811 433.05932107 393.99912006 433 392 C433.59425781 391.87625 434.18851562 391.7525 434.80078125 391.625 C445.39835729 388.98796708 453.74101458 382.92806093 459.5625 373.6640625 C464.17227567 365.12094563 465.1131887 358.23991978 464.6875 348.6875 C464.3516639 339.933319 464.3516639 339.933319 466.77734375 336.44140625 C469.125 334.75 469.125 334.75 471.61328125 333.35546875 C477.64510106 329.92986896 481.5380299 322.32536933 484 316 C486.58291933 306.32266226 486.56885445 293.90000368 481.77734375 285.04296875 C480.72061864 282.26574647 481.07769004 280.80590072 482 278 C483.5234375 275.67578125 483.5234375 275.67578125 485.375 273.3125 C492.34447757 263.56668024 492.86904965 253.64767935 492 242 C490.67290538 234.42450156 486.42912682 226.42912682 481 221 C481.25597981 217.41628269 482.12970333 214.68991234 483.51953125 211.3671875 C486.93686023 202.34196059 486.41966279 190.39380625 483.0625 181.4375 C479.56582626 174.3448152 474.33438681 168.18980588 467.72265625 163.84765625 C464.75308799 160.741752 464.60686658 160.33660002 464.5546875 156.3046875 C464.63851021 154.49358378 464.74634595 152.68347203 464.875 150.875 C465.35951618 136.74790982 461.83012168 128.38820811 452.19140625 118.0625 C448.21567578 114.22728391 444.988171 112.6271559 439.6875 111.0625 C436.5703125 109.89453125 436.5703125 109.89453125 434 108 C432.56980756 103.96259339 432.04138577 100.18014061 431.546875 95.94921875 C430.2043221 86.25406891 423.2893684 78.03292374 415.6484375 72.20703125 C407.83258095 67.18255204 399.32508191 64.37832787 390 65 C389.85304688 64.45472656 389.70609375 63.90945312 389.5546875 63.34765625 C386.51877771 53.14071816 380.78484336 45.10945925 372 39 C362.7277265 34.30919897 362.7277265 34.30919897 352.6484375 33.25390625 C338.7529386 34.16036424 338.7529386 34.16036424 333.9609375 30.98828125 C331.789686 28.42190801 329.89971865 25.77076868 328 23 C319.8077386 15.04180322 310.05214752 12.4566649 298.85595703 12.58666992 C293.18873552 12.80171771 288.27757736 14.03105768 283 16 C279.875 17.0625 279.875 17.0625 277 17 C274.87513901 15.69651384 273.00717597 14.21562747 271.08203125 12.6328125 C256.56868703 1.25086525 236.01592547 4.25800274 222.0703125 14.73046875 Z " fill="#3F4446" transform="translate(0,0)"/>
<path d="M0 0 C2.06640625 1.40234375 2.06640625 1.40234375 4.06640625 3.40234375 C6.89852568 3.18993479 9.44928442 2.62525848 12.12109375 1.66015625 C22.57756732 -2.03657683 34.3989386 -2.24395607 44.67578125 2.140625 C52.31773959 6.17388079 59.26568997 12.20126933 64.06640625 19.40234375 C65.98442273 19.73598744 65.98442273 19.73598744 68.1796875 19.51953125 C69.00952148 19.48359863 69.83935547 19.44766602 70.69433594 19.41064453 C71.58024414 19.36665527 72.46615234 19.32266602 73.37890625 19.27734375 C86.95318396 18.9453773 97.00918459 22.73362544 106.9296875 32.17578125 C111.55872215 37.03279834 117.06640625 44.41372476 117.06640625 51.40234375 C117.95328125 51.31984375 118.84015625 51.23734375 119.75390625 51.15234375 C130.52615149 51.19604454 140.49252998 56.22298867 148.21875 63.40234375 C155.23459128 70.7186773 158.93221844 78.15823877 159.62890625 88.27734375 C159.90831198 91.56814898 159.90831198 91.56814898 161.06640625 94.40234375 C163.89481298 96.28189493 166.59760897 97.16228378 169.828125 98.19140625 C179.17806298 101.68776424 185.75628842 110.70864016 190.06640625 119.40234375 C192.04033524 124.54461736 192.05598882 128.5628085 191.63134766 133.92651367 C190.89845368 141.85893848 190.89845368 141.85893848 193.13867188 149.28466797 C195.46374723 151.94929641 198.16105055 153.96997583 201.00390625 156.05078125 C206.93620551 160.60593961 210.16492003 167.26328164 212.06640625 174.40234375 C212.39067492 177.49008614 212.4460013 180.54915386 212.44140625 183.65234375 C212.44342041 184.49555176 212.44543457 185.33875977 212.44750977 186.20751953 C212.35529628 191.86364388 211.6019693 196.3610132 208.84375 201.39453125 C207.7832017 204.1338369 208.18379728 205.62535456 209.06640625 208.40234375 C210.34461688 210.68507024 210.34461688 210.68507024 211.94140625 212.83984375 C218.92824154 222.94310917 220.11584791 232.2839308 219.06640625 244.40234375 C217.57139795 252.23762821 214.49091766 257.41649717 209.4296875 263.453125 C207.78979458 265.42484742 207.78979458 265.42484742 207.94140625 268.46484375 C208.786118 270.67047998 209.68629152 272.85500419 210.61328125 275.02734375 C212.28913636 279.51730296 212.52961907 283.582435 212.44140625 288.33984375 C212.43125488 289.13326172 212.42110352 289.92667969 212.41064453 290.74414062 C212.25987026 296.42447356 211.69667639 301.29125063 209.06640625 306.40234375 C208.66421875 307.21832031 208.26203125 308.03429687 207.84765625 308.875 C204.19253239 315.60651977 199.0460435 321.91252512 192.06640625 325.40234375 C192.1128125 326.706875 192.15921875 328.01140625 192.20703125 329.35546875 C192.5979871 344.81747641 190.91023013 356.53022622 180.06640625 368.40234375 C174.06242098 373.76865085 167.88855186 376.65484314 160.06640625 378.40234375 C160.040625 379.15257812 160.01484375 379.9028125 159.98828125 380.67578125 C159.26476896 393.73188948 154.73786092 403.37182183 145.33984375 412.5078125 C137.16317874 419.32170001 127.51770794 421.77560452 117.06640625 421.40234375 C116.89625 421.97082031 116.72609375 422.53929687 116.55078125 423.125 C112.88412076 434.80760443 106.98977855 443.5169725 96.06640625 449.40234375 C88.68926655 453.13264236 83.03272989 453.67921768 74.87890625 453.08984375 C67.78610602 452.64022774 67.78610602 452.64022774 61.40234375 455.14453125 C59.70695134 457.43135267 59.70695134 457.43135267 58.41015625 459.94921875 C54.39391591 467.28119239 45.7310821 471.04202967 38.06640625 473.40234375 C27.87135787 475.80117866 19.75792755 474.41303209 10.1953125 470.30078125 C7.15662032 469.14398954 7.15662032 469.14398954 4.4296875 470.0703125 C1.31962394 471.82325741 -1.54990933 473.8004881 -4.45703125 475.8671875 C-11.0822609 479.97399389 -16.11857849 480.8817331 -23.80859375 480.77734375 C-24.65550781 480.78894531 -25.50242188 480.80054688 -26.375 480.8125 C-34.28664448 480.77615248 -41.23367388 479.08029237 -47.68359375 474.33984375 C-50.67215547 472.16483494 -53.33995636 470.38094395 -56.93359375 469.40234375 C-59.74587005 469.98140167 -59.74587005 469.98140167 -62.49609375 471.21484375 C-72.03105147 475.08966013 -81.51434491 475.9218277 -91.4296875 472.5 C-100.39879511 468.56814471 -109.43496671 462.39959783 -113.93359375 453.40234375 C-114.5476709 453.42329102 -115.16174805 453.44423828 -115.79443359 453.46582031 C-118.63231392 453.55002409 -121.46993027 453.60132798 -124.30859375 453.65234375 C-125.27410156 453.68585938 -126.23960937 453.719375 -127.234375 453.75390625 C-139.62499478 453.92022329 -148.89903626 448.66800273 -157.93359375 440.40234375 C-162.26882363 435.50164911 -166.93359375 428.10870664 -166.93359375 421.40234375 C-167.50464844 421.46035156 -168.07570313 421.51835937 -168.6640625 421.578125 C-178.9876691 422.15257052 -187.77286598 418.71561832 -195.49609375 411.90234375 C-204.89211315 402.90244658 -209.32876036 393.9037459 -209.890625 380.859375 C-209.90480469 380.04855469 -209.91898438 379.23773438 -209.93359375 378.40234375 C-210.65804687 378.28246094 -211.3825 378.16257812 -212.12890625 378.0390625 C-222.23891635 375.74389308 -229.99720846 369.58101506 -235.68359375 361.15234375 C-240.42945779 353.16436136 -242.08406115 347.18036371 -241.6706543 337.92260742 C-241.00284322 329.97668722 -241.00284322 329.97668722 -243.71484375 322.8359375 C-246.04336437 321.16328352 -248.43694152 319.80619902 -250.93359375 318.40234375 C-259.05813829 310.33196285 -262.40113746 299.98764273 -262.49609375 288.77734375 C-262.43565985 282.41309337 -261.82573554 277.09440048 -258.7109375 271.41015625 C-257.64375936 268.65372628 -258.01792158 267.19234956 -258.93359375 264.40234375 C-260.44568421 262.02423295 -260.44568421 262.02423295 -262.30859375 259.71484375 C-269.27807132 249.96902399 -269.8026434 240.0500231 -268.93359375 228.40234375 C-267.60649913 220.82684531 -263.36272057 212.83147057 -257.93359375 207.40234375 C-258.13516362 204.64755551 -258.59930896 202.19583029 -259.67578125 199.640625 C-263.64714151 190.01480418 -263.6285609 177.61825069 -259.99609375 167.90234375 C-256.5026311 160.74670009 -251.26396427 154.64646439 -244.6640625 150.19921875 C-241.76359612 147.2282117 -241.53552609 146.89811598 -241.41796875 143.0390625 C-241.47613364 141.38797281 -241.5656121 139.73773958 -241.68359375 138.08984375 C-242.33917423 125.87483694 -239.81362771 116.70831851 -231.80859375 107.27734375 C-225.79949948 100.84256405 -219.29702362 97.01667205 -210.93359375 94.40234375 C-210.77503906 93.35175781 -210.61648437 92.30117187 -210.453125 91.21875 C-208.26739325 77.68334402 -203.87835709 67.22235434 -192.58203125 58.609375 C-184.7661747 53.58489579 -176.25867566 50.78067162 -166.93359375 51.40234375 C-166.78664063 50.85707031 -166.6396875 50.31179687 -166.48828125 49.75 C-163.2083395 38.72260962 -156.63145869 30.20638169 -146.82421875 24.0859375 C-140.16091576 20.58641209 -134.15432561 19.21067182 -126.66308594 19.73583984 C-118.37374011 20.39095366 -118.37374011 20.39095366 -110.91015625 17.39453125 C-108.72775188 14.82924892 -106.83961034 12.17624153 -104.93359375 9.40234375 C-96.63621824 1.4874124 -87.55652017 -1.1461973 -76.34106445 -1.08569336 C-70.6262373 -0.88306694 -65.73428337 0.38262258 -60.44921875 2.625 C-57.43929776 3.55508428 -55.91086377 3.37881173 -52.93359375 2.40234375 C-50.82186002 1.15199463 -50.82186002 1.15199463 -48.80859375 -0.41015625 C-32.90739929 -11.24594558 -15.83637237 -9.73974076 0 0 Z M-60.87109375 18.08984375 C-68.62683463 24.24910154 -77.20247014 29.52004067 -87.3828125 29.53515625 C-88.23166016 29.53644531 -89.08050781 29.53773437 -89.95507812 29.5390625 C-90.83486328 29.53519531 -91.71464844 29.53132813 -92.62109375 29.52734375 C-93.48154297 29.53121094 -94.34199219 29.53507812 -95.22851562 29.5390625 C-100.87228499 29.53055644 -106.33507442 29.11704835 -111.93359375 28.40234375 C-112.52785156 29.32015625 -113.12210938 30.23796875 -113.734375 31.18359375 C-121.63850058 43.03332187 -130.87636969 51.42964999 -144.93359375 55.40234375 C-150.56001391 56.42544336 -156.23708646 56.95013286 -161.93359375 57.40234375 C-162.23652344 58.16417969 -162.53945312 58.92601562 -162.8515625 59.7109375 C-168.71010426 74.14998966 -175.22492896 86.49950516 -189.93359375 93.40234375 C-191.13628906 93.74265625 -192.33898437 94.08296875 -193.578125 94.43359375 C-197.67299121 95.68187428 -200.56981263 96.73005609 -203.93359375 99.40234375 C-206.18284893 104.61149218 -206.19981849 110.52320919 -206.66308594 116.10986328 C-207.8125769 125.85148798 -213.92762639 135.49907973 -221.45214844 141.64208984 C-224.08265687 143.64452302 -226.75519033 145.53789487 -229.4921875 147.39453125 C-231.97350771 149.14941649 -231.97350771 149.14941649 -232.84375 151.28515625 C-232.96295831 154.09432609 -232.4286846 156.63448687 -231.93359375 159.40234375 C-230.92650205 175.66439824 -233.48591486 189.52249838 -244.53125 202.2421875 C-244.99402344 202.74878906 -245.45679688 203.25539062 -245.93359375 203.77734375 C-248.15239834 206.15921333 -248.15239834 206.15921333 -247.99609375 208.71484375 C-246.75049455 211.86547703 -245.41109443 214.95777006 -243.96875 218.0234375 C-241.44467869 223.82403911 -240.54592757 228.70041687 -240.55859375 234.96484375 C-240.55947998 235.75479736 -240.56036621 236.54475098 -240.5612793 237.35864258 C-240.73454768 246.04405022 -243.16308733 253.60213521 -246.74609375 261.46484375 C-248.05280455 264.69723363 -248.13494878 265.27188978 -246.93359375 268.40234375 C-245.21797297 270.80471743 -245.21797297 270.80471743 -243.12109375 273.21484375 C-239.87832697 277.17565175 -237.18889907 280.80820328 -234.93359375 285.40234375 C-234.48693359 286.29179688 -234.48693359 286.29179688 -234.03125 287.19921875 C-230.07642602 296.60331633 -231.09188247 308.70811154 -233.18359375 318.46484375 C-233.61833665 321.00902076 -233.61833665 321.00902076 -232.93359375 323.40234375 C-230.25438439 326.10857034 -227.32027018 328.16406515 -224.1484375 330.234375 C-215.90816212 335.79130433 -210.06713109 344.00173174 -206.93359375 353.40234375 C-206.19011343 357.75551298 -205.6660848 362.14004351 -205.3972168 366.5480957 C-205.04933138 371.22043507 -205.04933138 371.22043507 -202.30029297 374.76196289 C-200.21494076 375.81269249 -198.13296872 376.62105847 -195.93359375 377.40234375 C-194.71513268 377.96845559 -193.50362045 378.54984928 -192.30078125 379.1484375 C-189.9694555 380.27759192 -187.63610928 381.40258407 -185.30078125 382.5234375 C-173.89952627 388.88539068 -168.19309227 399.39830246 -163.93359375 411.40234375 C-163.59017833 412.73311598 -163.25493983 414.06607073 -162.93359375 415.40234375 C-161.67546875 415.52609375 -160.41734375 415.64984375 -159.12109375 415.77734375 C-144.46788567 417.4500647 -130.90435339 421.04373019 -120.5625 432.234375 C-118.93359375 434.40234375 -118.93359375 434.40234375 -117.3984375 437.1640625 C-115.76077925 440.04907716 -114.44438083 442.22240045 -111.93359375 444.40234375 C-107.12579402 445.02557705 -102.68864813 444.17836029 -97.93359375 443.40234375 C-84.61708972 442.63111765 -71.91288747 445.76347021 -61.46875 454.453125 C-60.20000883 455.66829169 -58.96242795 456.91795915 -57.77734375 458.21484375 C-55.90385027 459.67682773 -55.90385027 459.67682773 -53.12109375 459.24609375 C-49.76135688 458.35675164 -46.64934653 457.21927108 -43.43359375 455.90234375 C-31.32622658 450.94408862 -19.27527586 451.31117841 -6.93359375 455.40234375 C-4.56137792 456.43749248 -2.25368471 457.51535896 0.03125 458.73046875 C2.80130754 459.64495992 4.30701546 459.31931053 7.06640625 458.40234375 C9.45807099 456.7392916 9.45807099 456.7392916 11.75390625 454.65234375 C22.94773513 445.41246725 34.67938694 442.4885736 49.06640625 443.40234375 C50.1440625 443.61761719 51.22171875 443.83289063 52.33203125 444.0546875 C55.85822609 444.68202216 58.53070427 445.0276142 62.06640625 444.40234375 C64.94860783 441.73114447 66.84193162 438.92504462 68.9609375 435.62109375 C74.75853316 426.75797905 83.70709387 420.74478341 94.01171875 418.46875 C100.32479781 417.20380652 106.69191799 416.29526818 113.06640625 415.40234375 C113.35773438 414.49613281 113.6490625 413.58992188 113.94921875 412.65625 C117.2739786 402.77606743 121.11300828 394.430928 129.06640625 387.40234375 C129.65550781 386.85964844 130.24460937 386.31695312 130.8515625 385.7578125 C136.68223624 380.75542139 142.88841771 378.18929547 150.00390625 375.56640625 C152.90061722 374.70471065 152.90061722 374.70471065 154.06640625 373.40234375 C154.29076613 372.058609 154.46206595 370.70591122 154.609375 369.3515625 C156.46725381 353.89103816 160.16073771 342.20393174 172.06640625 331.40234375 C174.0942456 330.06857968 176.13598658 328.75569967 178.19140625 327.46484375 C181.92907509 325.00804845 181.92907509 325.00804845 183.5390625 321.09375 C183.28496841 318.47448248 183.28496841 318.47448248 182.6953125 315.71484375 C180.34220958 303.32086067 181.18405375 290.4978125 188.15429688 279.72021484 C191.15007318 275.36441571 194.32282206 271.14592794 198.06640625 267.40234375 C197.93162973 262.14605937 195.50617201 257.80373028 193.22265625 253.18359375 C188.70920796 242.32692084 189.71051119 228.26020608 194.00390625 217.52734375 C194.5473407 216.23516686 195.09767813 214.94586212 195.65625 213.66015625 C197.33947272 210.13570716 197.33947272 210.13570716 198.06640625 206.40234375 C196.62227424 204.1286128 196.62227424 204.1286128 194.50390625 201.90234375 C186.07689984 191.89619603 181.64030657 181.0533948 181.87890625 168.02734375 C181.88535156 167.2907251 181.89179688 166.55410645 181.8984375 165.79516602 C181.97583351 160.28493269 182.3718706 154.87181202 183.06640625 149.40234375 C182.41414063 148.95503906 181.761875 148.50773438 181.08984375 148.046875 C178.40007989 146.18625664 175.73155719 144.2980075 173.06640625 142.40234375 C172.01453125 141.65984375 170.96265625 140.91734375 169.87890625 140.15234375 C158.48532242 129.01195067 155.64396438 114.59671941 154.06640625 99.40234375 C153.11121094 99.06203125 152.15601563 98.72171875 151.171875 98.37109375 C137.23359918 93.22203703 124.82172374 85.94050224 118.37890625 71.96484375 C117.16073403 69.22300157 116.13327094 66.69689802 115.46875 63.76953125 C114.70421163 60.92196919 114.20817048 59.46066262 112.06640625 57.40234375 C107.80541841 56.40720858 103.68633925 56.06340301 99.33203125 55.76953125 C94.01729267 55.39587496 89.75444679 53.90788474 85.06640625 51.40234375 C84.16535156 50.93054688 83.26429688 50.45875 82.3359375 49.97265625 C73.28552206 44.75462362 67.25136156 37.37879763 62.06640625 28.40234375 C60.13087891 28.64210938 60.13087891 28.64210938 58.15625 28.88671875 C41.77660423 30.69350933 27.90855085 30.09628156 14.06640625 20.40234375 C12.54286208 19.05122772 11.02195716 17.69712885 9.50390625 16.33984375 C6.54097622 13.91010208 6.54097622 13.91010208 2.890625 13.48828125 C0.49157134 14.28086381 -1.6783286 15.26339713 -3.93359375 16.40234375 C-14.34216885 21.51721055 -27.25097953 22.77122488 -38.51611328 19.69775391 C-42.38325674 18.34383559 -46.07356155 16.7211512 -49.7578125 14.93359375 C-55.16519801 12.32634268 -56.63907419 14.63713437 -60.87109375 18.08984375 Z " fill="#F8F8F8" transform="translate(272.93359375,13.59765625)"/>
<path d="M0 0 C4.44828073 1.44999206 7.59394533 3.90054569 11.0625 6.9375 C11.63339355 7.43056641 12.20428711 7.92363281 12.79248047 8.43164062 C14.53634919 9.94553274 16.26959632 11.47074757 18 13 C18.93972656 13.82628906 19.87945312 14.65257812 20.84765625 15.50390625 C23.94620921 18.2886817 26.98564446 21.12461852 30 24 C30.71494629 24.68094727 31.42989258 25.36189453 32.16650391 26.06347656 C46.94680945 40.23956543 59.99052943 55.04684321 70 73 C70.33870117 73.60634277 70.67740234 74.21268555 71.02636719 74.83740234 C79.57644189 90.36544125 84.1775685 105.92003816 84.1875 123.6875 C84.19974609 124.82123047 84.21199219 125.95496094 84.22460938 127.12304688 C84.27347107 155.38139193 69.70158025 178.32007286 50.44848633 197.74707031 C46.65868611 201.52528737 42.84181537 205.27471192 39 209 C37.87281082 205.61843247 38.33622269 203.53887202 38.98022461 200.1003418 C43.03698834 178.14010287 42.13102114 155.68003873 37 134 C36.79101074 133.1140918 36.58202148 132.22818359 36.36669922 131.31542969 C27.28214014 94.14699395 6.92006565 59.52922833 -17 30 C-19 27.5 -19 27.5 -21 25 C-19.47920927 21.49172085 -17.4004327 19.04728354 -14.8125 16.25 C-11.32038209 12.44297291 -7.88584446 8.59980554 -4.5078125 4.69140625 C-3.05861014 3.0657466 -1.555849 1.52324139 0 0 Z " fill="#66BB45" transform="translate(280,192)"/>
<path d="M0 0 C5.9700771 4.75810656 9.96335054 10.68780618 11.20703125 18.29296875 C11.55498083 26.16111883 9.92341682 33.84038251 4.77734375 39.95703125 C-2.85811648 47.17049713 -9.59516682 49.29009797 -20.05078125 49 C-27.82166114 48.00837852 -33.01261419 43.59149727 -37.79296875 37.61328125 C-42.72333166 30.70542861 -43.25640366 23.85842409 -42.234375 15.59375 C-39.80023071 7.46866652 -34.63917086 1.58454613 -27.2578125 -2.5 C-18.41872098 -6.30327444 -8.0931339 -5.09358078 0 0 Z " fill="#66BA45" transform="translate(365.234375,173.40625)"/>
<path d="M0 0 C0.495 1.98 0.495 1.98 1 4 C0.28457031 4.46148437 -0.43085938 4.92296875 -1.16796875 5.3984375 C-9.07811767 10.57636163 -16.61454999 16.09967979 -24 22 C-25.50626953 23.19496094 -25.50626953 23.19496094 -27.04296875 24.4140625 C-48.87999648 42.29330194 -66.90221807 62.96428293 -80 88 C-81.01539427 89.83635135 -82.03523056 91.67026524 -83.0625 93.5 C-83.70880919 94.66640312 -84.35487576 95.83294108 -85 97 C-86.57484552 94.63773172 -87.6643484 92.65628572 -88.76953125 90.0859375 C-89.09896729 89.32877441 -89.42840332 88.57161133 -89.76782227 87.79150391 C-90.11256592 86.99405762 -90.45730957 86.19661133 -90.8125 85.375 C-93.32313352 79.60449531 -95.86820129 74.03212195 -99.28515625 68.7265625 C-100 67 -100 67 -99.90625 65.0546875 C-92.14959038 47.46846785 -59.94280194 32.46418419 -43.87841797 23.09570312 C-42.6460495 22.37684821 -41.4158209 21.65430954 -40.18798828 20.92773438 C-30.1283186 14.98696318 -19.72902453 9.88038752 -9.16455078 4.8972168 C-8.12153809 4.40519775 -7.07852539 3.91317871 -6.00390625 3.40625 C-5.06361572 2.96603516 -4.1233252 2.52582031 -3.15454102 2.07226562 C-1.0726082 1.17860548 -1.0726082 1.17860548 0 0 Z " fill="#66B945" transform="translate(454,190)"/>
<path d="M0 0 C4.36889621 1.38508844 8.51582716 3.03638068 12.69921875 4.90625 C13.32721878 5.18691315 13.95521881 5.46757629 14.60224915 5.75674438 C16.63264769 6.66683194 18.66040472 7.58258007 20.6875 8.5 C21.38351318 8.81434998 22.07952637 9.12869995 22.79663086 9.45257568 C33.28838589 14.20112929 43.55243867 19.22904987 53.6640625 24.74609375 C56.19654763 26.10550466 58.75054912 27.41575206 61.3125 28.71875 C84.77732525 40.67741311 107.1074839 54.3901677 129 69 C127.08182665 73.39644402 123.99721442 75.43239102 120.125 78.0625 C118.87740546 78.9280991 117.63000459 79.79397739 116.3828125 80.66015625 C115.79790039 81.06250488 115.21298828 81.46485352 114.61035156 81.87939453 C112.70383041 83.2060974 110.843522 84.58725073 109 86 C105.44519997 84.49158187 103.20440378 82.42366339 100.515625 79.67578125 C99.23558594 78.37930664 99.23558594 78.37930664 97.9296875 77.05664062 C97.04539062 76.15107422 96.16109375 75.24550781 95.25 74.3125 C89.35067818 68.29501669 83.42724423 62.45230596 77 57 C75.87002193 56.01555183 74.74107804 55.02991507 73.61328125 54.04296875 C66.53952544 47.905959 59.34941811 41.99614692 51.84912109 36.38525391 C50.54696617 35.40975522 49.24810585 34.42985094 47.95166016 33.44677734 C33.59057488 22.56268787 18.68589731 12.54826261 3.32421875 3.12890625 C2.22722656 2.42636719 1.13023437 1.72382812 0 1 C0 0.67 0 0.34 0 0 Z " fill="#66B945" transform="translate(129,105)"/>
<path d="M0 0 C4.96893468 2.30700539 7.36834564 5.25205693 10 10 C10.55386502 12.85437292 10.56115768 15.60010657 10.5 18.5 C10.51546875 19.23347656 10.5309375 19.96695312 10.546875 20.72265625 C10.50337743 26.80144172 8.40877067 30.20582603 4.4375 34.8125 C0.52845686 38.04170955 -4.96474734 37.44752984 -9.75390625 37.41015625 C-13.83742873 36.89418771 -15.80925999 35.69392336 -18.73046875 32.8984375 C-23.09304659 26.37470571 -22.70033019 18.51979536 -22 11 C-20.79669471 6.93200767 -18.53057387 4.51730952 -15.5 1.5625 C-10.32575261 -0.74743187 -5.57666708 -0.75070518 0 0 Z " fill="#393E40" transform="translate(84,298)"/>
<path d="M0 0 C1.65 0 3.3 0 5 0 C5 4.62 5 9.24 5 14 C6.32 13.01 7.64 12.02 9 11 C12.76813271 10.17786196 16.4675611 10.14157987 19.8828125 12.0546875 C22.04424538 13.8193356 23.74530423 15.49060847 25 18 C25.97354694 31.554769 25.97354694 31.554769 22 37 C18.76085771 39.15942819 17.75140267 39.27232978 14 39.25 C13.13375 39.25515625 12.2675 39.2603125 11.375 39.265625 C9 39 9 39 6 37 C5.67 37.66 5.34 38.32 5 39 C3.35 39 1.7 39 0 39 C0 26.13 0 13.26 0 0 Z " fill="#060606" transform="translate(239,296)"/>
<path d="M0 0 C3.71876879 3.94414872 4.35670178 6.23161839 4.375 11.5625 C4.39175781 12.68398438 4.40851563 13.80546875 4.42578125 14.9609375 C3.92383439 19.41908917 2.41033968 21.88525321 -0.78515625 24.97265625 C-4.87825923 27.28291946 -9.39242405 26.79440925 -13.9375 26.1875 C-18.14168476 23.8709084 -19.44744216 21.63832211 -20.9375 17.1875 C-21.60223001 11.87738931 -21.55708614 7.49551518 -19.25 2.625 C-14.19333461 -2.70499865 -6.31591721 -3.8970553 0 0 Z " fill="#383C3E" transform="translate(226.9375,308.8125)"/>
<path d="M0 0 C0.66 0.66 1.32 1.32 2 2 C-6.69292871 9.14392279 -13.12887246 11.61995697 -24.5234375 11.3515625 C-32.43485527 10.55153149 -38.29581816 7.40396175 -44 2 C-31.17478305 -8.26605669 -13.95614334 -7.26423865 0 0 Z " fill="#44494B" transform="translate(269,477)"/>
<path d="M0 0 C2.765625 2.03515625 2.765625 2.03515625 4.75 3.9375 C4.75 4.9275 4.75 5.9175 4.75 6.9375 C-2.91981232 10.54682345 -10.7356249 11.31027692 -19.02734375 9.24609375 C-26.30432364 6.56628143 -33.27770585 1.94568876 -38.25 -4.0625 C-38.25 -5.0525 -38.25 -6.0425 -38.25 -7.0625 C-24.45942937 -10.28117208 -11.60062054 -8.03461346 0 0 Z " fill="#43484A" transform="translate(205.25,471.0625)"/>
<path d="M0 0 C12.27477694 3.38001104 21.94174364 9.54440729 28.5703125 20.625 C30.71335647 24.73964443 32.22635136 28.40697021 33 33 C24.70791984 34.1307382 17.03116098 29.5351494 10.5625 24.625 C3.98543403 17.88751779 0 9.50849111 0 0 Z " fill="#44484A" transform="translate(70,395)"/>
<path d="M0 0 C1.2890625 -0.00257813 2.578125 -0.00515625 3.90625 -0.0078125 C6.92209033 0.10364247 9.57792088 0.41695775 12.5 1.125 C11.77603938 5.97661671 8.82365134 8.10072632 5.21875 11.15234375 C-2.9605232 17.08701755 -11.47233694 19.4455153 -21.5 18.125 C-24.61080055 17.34840298 -27.54947653 16.37673723 -30.5 15.125 C-30.5 14.135 -30.5 13.145 -30.5 12.125 C-21.26740802 3.84404951 -12.33639214 -0.02467278 0 0 Z " fill="#43484A" transform="translate(316.5,462.875)"/>
<path d="M0 0 C-0.23308799 10.14992256 -3.78176024 17.78176024 -11 25 C-17.94006451 29.85571627 -24.34656793 33.41206819 -33 33 C-29.93263599 21.86062542 -24.641277 12.65504076 -15 6 C-3.84615385 0 -3.84615385 0 0 0 Z " fill="#43484A" transform="translate(426,395)"/>
<path d="M0 0 C2 1 2 1 2.8515625 3.22265625 C5.72696316 13.78031423 5.9824295 22.50579176 0.7109375 32.42578125 C-2.45663116 37.46509503 -6.11337857 41.56724941 -11 45 C-11.33 45 -11.66 45 -12 45 C-14.99664064 32.79417107 -13.9525398 20.24992269 -7.50390625 9.5078125 C-5.26064359 6.00586132 -3.02733764 2.86564008 0 0 Z " fill="#44484A" transform="translate(474,287)"/>
<path d="M0 0 C-3.35052831 11.52254858 -8.399681 21.45954969 -19.0078125 27.796875 C-23.63158678 30.1826062 -27.83332838 32.17824418 -33 33 C-32.498744 22.64070943 -28.85722109 14.88501844 -21.25390625 7.7578125 C-14.93111981 2.82669656 -8.04220529 -0.22339459 0 0 Z " fill="#43484A" transform="translate(103,72)"/>
<path d="M0 0 C9.52252984 4.47107496 17.20404844 11.83537412 21.0625 21.72265625 C21.80238131 24.13794188 22.43847482 26.53792807 23 29 C23.18691406 29.66773438 23.37382813 30.33546875 23.56640625 31.0234375 C24.29567018 34.34782985 24.05656486 37.60610864 24 41 C12.93988723 36.87805982 7.12457969 31.39828009 2.12890625 20.671875 C0.17755869 16.05346071 -0.12251865 12.25711349 -0.0625 7.3125 C-0.05798828 6.61060547 -0.05347656 5.90871094 -0.04882812 5.18554688 C-0.03706927 3.45699462 -0.01913454 1.72848635 0 0 Z " fill="#43484A" transform="translate(38,344)"/>
<path d="M0 0 C8.97359515 0.34513827 17.32286174 4.15528964 23.9375 10.25 C29.95540773 16.93002472 32.57048399 24.12333573 33 33 C22.55449027 30.5140123 13.73030071 25.52616648 7 17 C3.72783687 11.61872376 1.46186127 6.11323804 0 0 Z " fill="#43484A" transform="translate(393,72)"/>
<path d="M0 0 C11.16996132 -0.58703446 21.26327124 0.30198874 30.3671875 7.3828125 C35.08793102 12.05838144 39.07104858 17.3306052 40 24 C28.49726217 24.65109837 19.03689373 21.09846637 10 14 C5.53115063 9.74949832 2.06874848 5.86660015 0 0 Z " fill="#43484A" transform="translate(342,40)"/>
<path d="M0 0 C1.25425781 0.00902344 2.50851563 0.01804688 3.80078125 0.02734375 C4.75339844 0.03894531 5.70601562 0.05054688 6.6875 0.0625 C3.66972945 8.88004834 -3.67924671 15.48072452 -11.703125 19.87890625 C-18.78968492 23.09331891 -25.5619159 24.50121231 -33.3125 24.0625 C-32.87114912 17.00088597 -27.28113154 11.76086894 -22.3125 7.25 C-15.22834895 1.32630036 -9.0937211 -0.08498805 0 0 Z " fill="#43484A" transform="translate(147.3125,39.9375)"/>
<path d="M0 0 C8.00529235 1.66776924 13.58578669 5.62022274 18.3125 12.3125 C23.90757436 21.49025141 24.4102347 29.31870402 24 40 C15.22880972 36.9980953 8.57353205 29.66365462 4.18359375 21.6796875 C1.12801713 14.76178135 -0.51528379 7.55749563 0 0 Z " fill="#43484A" transform="translate(434,116)"/>
<path d="M0 0 C0.7763244 17.57512188 0.7763244 17.57512188 -4 25 C-4.42410156 25.69480469 -4.84820312 26.38960938 -5.28515625 27.10546875 C-9.24654744 32.98686569 -14.74461491 37.98852309 -21.77734375 39.66015625 C-22.51082031 39.77230469 -23.24429687 39.88445312 -24 40 C-24.70695399 29.39569022 -20.88027336 20.63173817 -15 12 C-14.401875 11.113125 -13.80375 10.22625 -13.1875 9.3125 C-4.37837838 0 -4.37837838 0 0 0 Z " fill="#43484A" transform="translate(458,344)"/>
<path d="M0 0 C0.37228602 11.71956387 -3.2490698 22.19783028 -11 31 C-15.02297756 35.10710827 -18.54970738 38.03864902 -24 40 C-24.47235104 27.70137853 -23.70175541 18.79591955 -15.46875 9.21875 C-11.50496954 4.9666946 -6.17387401 0 0 0 Z " fill="#424749" transform="translate(62,116)"/>
<path d="M0 0 C-2.154958 8.86611292 -6.43185271 14.90135846 -14.125 19.875 C-15.39190196 20.62673021 -16.68549179 21.33501349 -18 22 C-19.08474609 22.556875 -19.08474609 22.556875 -20.19140625 23.125 C-24.10100556 24.34301147 -27.74600177 24.21362444 -31.8125 24.125 C-32.99489258 24.11146484 -32.99489258 24.11146484 -34.20117188 24.09765625 C-36.13424666 24.07422504 -38.0671638 24.03835838 -40 24 C-34.95225507 13.3007129 -26.74959712 6.67746195 -15.9375 2.125 C-10.8358374 0.4033209 -5.36173751 0 0 0 Z " fill="#43484A" transform="translate(382,436)"/>
<path d="M0 0 C12.67128879 0.24713507 23.88207952 3.89948013 33 13 C40 21.75 40 21.75 40 24 C21.31128118 24.97562917 21.31128118 24.97562917 13 19 C12.27296875 18.49210937 11.5459375 17.98421875 10.796875 17.4609375 C5.43484601 13.27061114 2.40874052 8.33452435 0 2 C0 1.34 0 0.68 0 0 Z " fill="#424749" transform="translate(114,436)"/>
<path d="M0 0 C5.14503247 4.71750828 6.91700488 10.57408213 7.4296875 17.42578125 C7.85008466 27.67620593 6.65876255 35.73239021 2 45 C1.01 45 0.02 45 -1 45 C-2.31640625 43.4609375 -2.31640625 43.4609375 -3.5625 41.375 C-4.18318359 40.36566406 -4.18318359 40.36566406 -4.81640625 39.3359375 C-8.80474236 31.46456788 -9.24838985 22.64955827 -8 14 C-6.19863232 8.75614134 -3.94959441 3.94959441 0 0 Z " fill="#434749" transform="translate(19,227)"/>
<path d="M0 0 C2.55861157 10.60887725 2.41355354 23.36643229 -3 33 C-5.76451868 37.18515664 -8.82769334 41.11595787 -12 45 C-16.57582393 40.42417607 -16.42197718 34.9237154 -16.4375 28.8125 C-16.43140283 18.10180632 -13.54580137 11.37581992 -6.4296875 3.375 C-4.41562174 1.43797501 -2.87892333 0 0 0 Z " fill="#434749" transform="translate(34,169)"/>
<path d="M0 0 C7.31403893 4.73261342 11.79146206 13.71889839 14 22 C14.37199113 25.26405306 14.37689357 28.46850383 14.3125 31.75 C14.31733398 33.00490234 14.31733398 33.00490234 14.32226562 34.28515625 C14.28543952 38.48333236 14.10408011 41.28291397 12 45 C5.13001541 39.73417424 -1.55019166 32.90596552 -3 24 C-3.47252459 15.60360152 -3.84670997 7.69341994 0 0 Z " fill="#424749" transform="translate(21,287)"/>
<path d="M0 0 C1.10118164 -0.0309375 1.10118164 -0.0309375 2.22460938 -0.0625 C7.45413689 -0.09962176 11.01134339 0.90265586 15.6875 3.25 C15.6875 3.91 15.6875 4.57 15.6875 5.25 C13.71986595 6.83070601 11.76636837 8.2671694 9.6875 9.6875 C9.13449219 10.08259766 8.58148438 10.47769531 8.01171875 10.88476562 C0.31315783 16.20296691 -6.31510876 17.71986459 -15.625 17.5 C-16.51767578 17.49484375 -17.41035156 17.4896875 -18.33007812 17.484375 C-24.84466481 17.40594506 -24.84466481 17.40594506 -28.3125 16.25 C-26.58998995 9.74273981 -21.15576 6.22734862 -15.625 2.9375 C-10.38285607 0.26697385 -5.83007955 0.0403117 0 0 Z " fill="#424749" transform="translate(195.3125,19.75)"/>
<path d="M0 0 C5.88821876 5.0704106 8.58780357 10.1490167 9.421875 17.94140625 C9.85474655 26.97337854 9.00482243 35.17667231 4 43 C1.828125 44.8203125 1.828125 44.8203125 0 46 C-0.63032133 44.79443396 -1.2539497 43.58536811 -1.875 42.375 C-2.22304688 41.70210938 -2.57109375 41.02921875 -2.9296875 40.3359375 C-5.48015428 34.76959029 -6.35819021 29.85202956 -6.3125 23.75 C-6.30903564 23.00073242 -6.30557129 22.25146484 -6.30200195 21.47949219 C-6.14726127 13.56292449 -4.6095925 6.58513215 0 0 Z " fill="#424749" transform="translate(476,227)"/>
<path d="M0 0 C5.33937681 1.41336445 7.9033812 4.67932508 11 9 C11.73863281 10.01513672 11.73863281 10.01513672 12.4921875 11.05078125 C15.91720147 16.65271087 16.45956557 21.76690348 16.5 28.1875 C16.50628418 28.94780518 16.51256836 29.70811035 16.51904297 30.49145508 C16.4028056 35.66627488 15.30650879 39.36857943 13 44 C12.34 44 11.68 44 11 44 C0.72611296 31.38670794 -1.84009898 21.09112656 -1 5 C-0.71353957 3.32464054 -0.40304736 1.65119403 0 0 Z " fill="#434949" transform="translate(462,169)"/>
<path d="M0 0 C2.01918133 1.55626858 3.38986024 3.00120582 5 5 C3.79443396 5.63032133 2.58536811 6.2539497 1.375 6.875 C0.36566406 7.39707031 0.36566406 7.39707031 -0.6640625 7.9296875 C-6.58298007 10.6416999 -11.68914465 11.41696481 -18.125 11.4375 C-19.3766394 11.44330078 -19.3766394 11.44330078 -20.65356445 11.44921875 C-27.98976627 11.31329761 -33.5521844 9.60356959 -40 6 C-40 5.01 -40 4.02 -40 3 C-37.98828125 1.4296875 -37.98828125 1.4296875 -35.3125 -0.125 C-34.44238281 -0.64320312 -33.57226562 -1.16140625 -32.67578125 -1.6953125 C-22.77081227 -6.52488862 -9.50980618 -5.07946985 0 0 Z " fill="#424749" transform="translate(266,17)"/>
<path d="M0 0 C1.12921875 0.0163147 1.12921875 0.0163147 2.28125 0.03295898 C12.14623955 0.31711357 18.27089912 3.68743706 25.5625 10.375 C28.5625 13.94706208 28.5625 13.94706208 28.5625 16.375 C18.91538178 18.68881559 6.60672891 18.76747542 -2.4375 14.375 C-5.91777025 12.21793149 -9.18194559 9.85400015 -12.4375 7.375 C-13.4275 6.715 -14.4175 6.055 -15.4375 5.375 C-15.4375 4.715 -15.4375 4.055 -15.4375 3.375 C-10.09189598 0.71975911 -5.94134572 -0.1162495 0 0 Z " fill="#424749" transform="translate(300.4375,19.625)"/>
<path d="M0 0 C4.96893468 2.30700539 7.36834564 5.25205693 10 10 C10.55386502 12.85437292 10.56115768 15.60010657 10.5 18.5 C10.51546875 19.23347656 10.5309375 19.96695312 10.546875 20.72265625 C10.50337743 26.80144172 8.40877067 30.20582603 4.4375 34.8125 C0.52845686 38.04170955 -4.96474734 37.44752984 -9.75390625 37.41015625 C-13.83742873 36.89418771 -15.80925999 35.69392336 -18.73046875 32.8984375 C-23.09304659 26.37470571 -22.70033019 18.51979536 -22 11 C-20.79669471 6.93200767 -18.53057387 4.51730952 -15.5 1.5625 C-10.32575261 -0.74743187 -5.57666708 -0.75070518 0 0 Z M-16 9 C-18.93297414 13.96429192 -18.87099456 19.579598 -17.46484375 25.1015625 C-16.00798837 28.84321292 -14.39361575 30.93851406 -11 33 C-6.25614318 33.8562083 -2.21610997 33.68406186 2 31.3125 C6.31913908 26.31849544 6.42602422 21.25347597 6.32421875 14.88671875 C5.86289254 10.77924807 4.78064029 9.01898089 2 6 C-4.41146452 1.72569032 -11.44847737 2.74165639 -16 9 Z " fill="#030303" transform="translate(84,298)"/>
<path d="M0 0 C2.26171875 -0.05859375 2.26171875 -0.05859375 5 1 C6.72511926 3.80479646 7.73602894 6.83640789 8.8125 9.9375 C9.12380859 10.77474609 9.43511719 11.61199219 9.75585938 12.47460938 C12 18.60530563 12 18.60530563 12 21 C12.66 21 13.32 21 14 21 C14.17015625 20.39414062 14.3403125 19.78828125 14.515625 19.1640625 C15.8499641 14.55065605 17.26832379 9.96362444 18.875 5.4375 C19.30425781 4.19806641 19.30425781 4.19806641 19.7421875 2.93359375 C21 1 21 1 23.6328125 0.22265625 C24.41398437 0.14917969 25.19515625 0.07570313 26 0 C23.97742439 6.28062954 21.73091964 12.43733273 19.31640625 18.578125 C18.4287265 20.88556555 17.58305186 23.20954925 16.77734375 25.546875 C12.79315979 36.87169371 12.79315979 36.87169371 7 40 C3.125 40.3125 3.125 40.3125 0 40 C-0.33 38.68 -0.66 37.36 -1 36 C1.01822917 35.83723958 3.03645833 35.67447917 5.0546875 35.51171875 C7.39519216 35.12606964 7.39519216 35.12606964 9 32 C9.95179481 25.09033578 7.12302338 19.47724224 4.5 13.1875 C3.65352257 11.11960394 2.80963419 9.05064554 1.96875 6.98046875 C1.59169922 6.07192139 1.21464844 5.16337402 0.82617188 4.22729492 C0 2 0 2 0 0 Z " fill="#050606" transform="translate(147,307)"/>
<path d="M0 0 C2.67431489 1.81163267 2.95920359 2.87761077 4 6 C4.60626751 11.10996905 4.8279672 14.78240118 1.875 19.125 C-1.54735256 21.35696906 -3.00022668 21.83328611 -7 21 C-9.875 19.25 -9.875 19.25 -12 16 C-12.64028919 11.91885237 -12.80960003 8.05916703 -12 4 C-8.32783508 -0.83179594 -5.72422651 -0.63602517 0 0 Z " fill="#383C3E" transform="translate(256,311)"/>
<path d="M0 0 C3.71876879 3.94414872 4.35670178 6.23161839 4.375 11.5625 C4.39175781 12.68398438 4.40851563 13.80546875 4.42578125 14.9609375 C3.92383439 19.41908917 2.41033968 21.88525321 -0.78515625 24.97265625 C-4.87825923 27.28291946 -9.39242405 26.79440925 -13.9375 26.1875 C-18.14168476 23.8709084 -19.44744216 21.63832211 -20.9375 17.1875 C-21.60223001 11.87738931 -21.55708614 7.49551518 -19.25 2.625 C-14.19333461 -2.70499865 -6.31591721 -3.8970553 0 0 Z M-15.5 4.0625 C-17.55694045 8.53410968 -17.79974949 12.35274396 -16.9375 17.1875 C-15.66507898 20.34408293 -14.81065896 21.01797181 -11.9375 23.1875 C-8.72935769 23.58641087 -5.95182474 23.37290861 -2.9375 22.1875 C-0.733539 20.00326125 -0.01178786 18.63657349 0.49609375 15.56640625 C0.50210145 11.234854 0.42333131 7.98760421 -1.375 4 C-4.63520697 1.69399995 -6.8712189 1.45928543 -10.80859375 1.71875 C-13.16111613 2.08675385 -13.16111613 2.08675385 -15.5 4.0625 Z " fill="#030303" transform="translate(226.9375,308.8125)"/>
<path d="M0 0 C1.32 0 2.64 0 4 0 C4.33 0.99 4.66 1.98 5 3 C5.495 2.505 5.99 2.01 6.5 1.5 C10.01651426 -0.60990855 12.99309697 -0.46994542 17 0 C19.67855254 0.8458587 20.61443006 1.37956249 22.08935547 3.75292969 C23.16152573 6.39857449 23.2284442 8.35379911 23.1953125 11.203125 C23.18886719 12.1828125 23.18242188 13.1625 23.17578125 14.171875 C23.15902344 15.18765625 23.14226562 16.2034375 23.125 17.25 C23.11597656 18.28125 23.10695313 19.3125 23.09765625 20.375 C23.07412011 22.91690287 23.04124023 25.4583328 23 28 C21.68 28 20.36 28 19 28 C18.98018066 27.37432129 18.96036133 26.74864258 18.93994141 26.10400391 C18.84485774 23.27723481 18.73511254 20.45122185 18.625 17.625 C18.5940625 16.64015625 18.563125 15.6553125 18.53125 14.640625 C18.49257812 13.69960938 18.45390625 12.75859375 18.4140625 11.7890625 C18.36693115 10.48509521 18.36693115 10.48509521 18.31884766 9.15478516 C18.18770567 6.79038206 18.18770567 6.79038206 16 5 C11.93904042 4.52786327 11.93904042 4.52786327 8 5 C5.81900336 6.80255887 5.10394899 8.32608614 4.67456055 11.10986328 C4.47972915 13.65875848 4.37855579 16.1945847 4.3125 18.75 C4.27833984 19.63816406 4.24417969 20.52632813 4.20898438 21.44140625 C4.12671286 23.62747803 4.05749828 25.81315951 4 28 C2.68 28 1.36 28 0 28 C0 18.76 0 9.52 0 0 Z " fill="#030404" transform="translate(103,307)"/>
<path d="M0 0 C0.95003906 -0.00773437 1.90007812 -0.01546875 2.87890625 -0.0234375 C5.77840496 0.42808749 6.6554046 1.10687858 8.4375 3.375 C8.1075 4.365 7.7775 5.355 7.4375 6.375 C6.73625 6.045 6.035 5.715 5.3125 5.375 C2.17746884 4.28455438 -0.26813182 4.22177357 -3.5625 4.375 C-4.2225 6.355 -4.8825 8.335 -5.5625 10.375 C-4.81484375 10.55675781 -4.0671875 10.73851562 -3.296875 10.92578125 C-2.31203125 11.17714844 -1.3271875 11.42851562 -0.3125 11.6875 C0.66203125 11.93113281 1.6365625 12.17476563 2.640625 12.42578125 C5.4952351 13.39459446 7.28913815 14.26679445 9.4375 16.375 C10.30524111 23.20846124 10.30524111 23.20846124 7.78125 26.6015625 C4.81197541 28.8483136 3.12754054 28.88168826 -0.5625 28.8125 C-2.109375 28.81056641 -2.109375 28.81056641 -3.6875 28.80859375 C-6.83432056 28.33400532 -8.23268047 27.48639895 -10.5625 25.375 C-10.2325 24.055 -9.9025 22.735 -9.5625 21.375 C-7.5625 22.375 -5.5625 23.375 -3.5625 24.375 C0.58253661 24.62287017 0.58253661 24.62287017 4.4375 23.375 C4.4375 21.725 4.4375 20.075 4.4375 18.375 C3.59445312 18.03726562 2.75140625 17.69953125 1.8828125 17.3515625 C0.78710938 16.90554688 -0.30859375 16.45953125 -1.4375 16 C-2.52804687 15.55914062 -3.61859375 15.11828125 -4.7421875 14.6640625 C-7.5625 13.375 -7.5625 13.375 -9.5625 11.375 C-10.1037844 5.69151376 -10.1037844 5.69151376 -9.5625 3.375 C-6.59595629 0.31164601 -4.17052602 -0.03404511 0 0 Z " fill="#040404" transform="translate(280.5625,306.625)"/>
<path d="M0 0 C1.65 0 3.3 0 5 0 C5.07455949 4.02009457 5.12879358 8.03991733 5.16479492 12.06054688 C5.17981428 13.42617816 5.20023608 14.79176176 5.22631836 16.15722656 C5.26300137 18.12803905 5.27818551 20.09921408 5.29296875 22.0703125 C5.3086792 23.25383301 5.32438965 24.43735352 5.34057617 25.65673828 C4.95618154 29.43014341 3.99176662 31.78788669 2 35 C-2.65244847 38.10163231 -7.56012813 37.87976365 -13 37 C-15.53032934 35.208985 -16.40577483 33.73295744 -18 31 C-16.68 30.34 -15.36 29.68 -14 29 C-13.01 29.99 -12.02 30.98 -11 32 C-7.7 32 -4.4 32 -1 32 C-0.67 21.44 -0.34 10.88 0 0 Z " fill="#070708" transform="translate(193,298)"/>
<path d="M0 0 C1.32 0 2.64 0 4 0 C4.33 11.55 4.66 23.1 5 35 C6.32 35.33 7.64 35.66 9 36 C9 36.99 9 37.98 9 39 C5.625 39.125 5.625 39.125 2 39 C0 37 0 37 -0.22705078 33.37646484 C-0.22673357 31.82125311 -0.21540299 30.26601949 -0.1953125 28.7109375 C-0.1924826 27.89251373 -0.18965271 27.07408997 -0.18673706 26.23086548 C-0.17552532 23.61209607 -0.15041929 20.99366636 -0.125 18.375 C-0.11497147 16.60156743 -0.1058454 14.82812951 -0.09765625 13.0546875 C-0.07558278 8.70299374 -0.04104644 4.3515545 0 0 Z " fill="#030303" transform="translate(135,296)"/>
</svg>
